<svg version="1.2" xmlns="http://www.w3.org/2000/svg" viewBox="0 0 2495 246" width="2495" height="246">
	<style>
		.s0 { fill: #080804 } 
	</style>
	<path class="s0" d="m191.97-0.01c-6.52 0-15.06 4.25-18.99 9.45l-170.83 226.29c-3.93 5.2-1.8 9.46 4.72 9.46h198.39c6.51 0 15.06-4.26 18.99-9.46l170.98-226.21c3.93-5.2 1.82-9.45-4.7-9.46zm355.55 9.45c3.93-5.2 1.8-9.45-4.72-9.45h-93.22c-6.52 0-15.06 4.25-18.99 9.45l-170.91 226.3c-3.92 5.19-1.81 9.45 4.71 9.45h93.31c6.52 0 15.07-4.26 18.99-9.45zm56.06-9.46c-6.52 0-15.07 4.26-18.99 9.46l-170.91 226.29c-3.93 5.19-1.81 9.45 4.71 9.45h71.1c6.52 0 15.07-4.26 18.99-9.45l170.91-226.29c3.93-5.2 1.81-9.46-4.71-9.46zm-47.66 235.82c-3.93 5.21-1.81 9.46 4.71 9.45l48.97-0.05c6.52-0.01 15.06-4.28 18.99-9.47l170.82-226.21c3.93-5.21 1.82-9.47-4.7-9.47l-48.98-0.05c-6.51-0.02-15.06 4.24-18.98 9.44zm127.4-0.06c-3.93 5.19-1.83 9.44 4.69 9.44h35.58c6.52 0 15.07-4.25 19-9.44l170.8-225.41c3.93-5.2 1.82-9.45-4.7-9.45h-35.41c-6.52 0-15.08 4.25-19.01 9.44zm302.4-234.86c-6.52 0-15.07 4.25-19 9.45l-170.8 225.49c-3.94 5.19-1.83 9.44 4.69 9.43l82.94-0.06c6.52 0 15.07-4.26 19-9.45l27.26-35.98c3.93-5.2 12.49-9.45 19-9.45l315.48-0.08c1.56 0.01 3.1 0.32 4.53 0.91 1.44 0.6 2.75 1.47 3.85 2.57 1.09 1.1 1.97 2.4 2.57 3.84 0.59 1.43 0.9 2.97 0.91 4.53v31.25c0 1.56 0.31 3.1 0.91 4.53 0.59 1.44 1.47 2.74 2.57 3.85 1.1 1.1 2.4 1.97 3.84 2.57 1.43 0.6 2.97 0.91 4.53 0.91l65.13 0.06c1.56 0 3.1-0.31 4.53-0.91 1.44-0.59 2.74-1.46 3.84-2.56 1.1-1.1 1.98-2.41 2.57-3.84 0.6-1.44 0.91-2.97 0.91-4.53v-220.6c0-1.55-0.31-3.09-0.91-4.53-0.6-1.43-1.47-2.74-2.57-3.84-1.1-1.1-2.4-1.97-3.84-2.57-1.43-0.59-2.97-0.9-4.53-0.91zm12.66 123.86c-6.52 0-8.64-4.25-4.72-9.46l31.63-41.98c3.92-5.21 12.46-9.47 18.98-9.47h220.03c1.56 0.01 3.1 0.32 4.53 0.91 1.44 0.6 2.75 1.47 3.85 2.57 1.1 1.1 1.97 2.41 2.57 3.84 0.6 1.44 0.91 2.98 0.92 4.53l0.05 37.14c0 1.55-0.31 3.09-0.9 4.52-0.6 1.44-1.47 2.75-2.57 3.85-1.1 1.09-2.4 1.97-3.83 2.57-1.44 0.59-2.98 0.9-4.53 0.91zm410.54 108.59c0.01 1.55 0.32 3.09 0.91 4.53 0.6 1.43 1.48 2.74 2.57 3.84 1.1 1.1 2.41 1.97 3.84 2.57 1.44 0.59 2.98 0.9 4.53 0.91h65.14c1.55-0.01 3.09-0.32 4.53-0.91 1.44-0.6 2.74-1.47 3.84-2.57 1.1-1.1 1.97-2.4 2.57-3.84 0.6-1.44 0.91-2.98 0.91-4.53l0.08-124.58c0-6.52 4.59-9.14 10.21-5.83l123.29 72.71c5.62 3.31 15.54 6.02 22.06 6.01l47.34-0.05c6.51-0.01 16.44-2.72 22.06-6.03l123.28-72.57c5.62-3.31 10.21-0.68 10.21 5.84l-0.07 124.5c0 1.55 0.31 3.09 0.91 4.53 0.59 1.43 1.47 2.74 2.57 3.84 1.1 1.1 2.4 1.97 3.84 2.57 1.43 0.59 2.97 0.9 4.53 0.91h65.21c1.56-0.01 3.1-0.32 4.53-0.91 1.44-0.6 2.74-1.47 3.84-2.57 1.1-1.1 1.98-2.41 2.57-3.84 0.6-1.44 0.91-2.98 0.91-4.53v-220.53c0-1.55-0.31-3.09-0.91-4.53-0.6-1.43-1.47-2.74-2.57-3.84-1.1-1.1-2.4-1.97-3.84-2.57-1.43-0.6-2.97-0.91-4.53-0.91l-65.14-0.07c-6.51 0-16.32 2.89-21.8 6.43l-159.24 102.92c-5.47 3.53-14.43 3.53-19.91 0l-159.39-102.93c-5.48-3.53-15.29-6.42-21.81-6.42l-65.22 0.07c-1.55 0-3.09 0.31-4.53 0.91-1.43 0.6-2.74 1.48-3.83 2.58-1.1 1.1-1.98 2.4-2.57 3.84-0.6 1.43-0.91 2.97-0.92 4.53zm580.63 0c0.01 1.55 0.32 3.09 0.91 4.53 0.6 1.43 1.47 2.74 2.57 3.84 1.1 1.09 2.41 1.97 3.84 2.56 1.44 0.6 2.98 0.91 4.53 0.92h481.4c1.56-0.01 3.1-0.32 4.53-0.92 1.44-0.59 2.74-1.47 3.84-2.56 1.1-1.1 1.97-2.41 2.57-3.84 0.6-1.44 0.91-2.98 0.91-4.53v-122.05c0-1.56-0.31-3.1-0.91-4.53-0.6-1.44-1.47-2.74-2.57-3.84-1.1-1.1-2.4-1.98-3.84-2.57-1.43-0.6-2.97-0.91-4.53-0.92l-237.01-0.07c-1.56 0-3.09 0.31-4.53 0.91-1.43 0.6-2.74 1.47-3.84 2.57-1.09 1.1-1.97 2.4-2.56 3.84-0.6 1.43-0.9 2.97-0.9 4.53l0.04 23.66c0.01 1.55 0.32 3.09 0.92 4.53 0.6 1.44 1.47 2.74 2.57 3.84 1.1 1.1 2.41 1.97 3.85 2.57 1.43 0.6 2.97 0.91 4.53 0.91l148.09 0.15c1.56 0 3.1 0.31 4.53 0.91 1.44 0.6 2.74 1.47 3.84 2.57 1.1 1.1 1.98 2.41 2.57 3.85 0.6 1.43 0.91 2.97 0.92 4.53v12.55c-0.01 1.56-0.32 3.09-0.92 4.53-0.59 1.44-1.47 2.74-2.57 3.84-1.09 1.1-2.4 1.97-3.84 2.57-1.43 0.6-2.97 0.9-4.53 0.91l-303.64-0.07c-1.55-0.01-3.09-0.32-4.53-0.92-1.43-0.6-2.74-1.47-3.84-2.57-1.1-1.1-1.97-2.4-2.57-3.84-0.59-1.44-0.9-2.97-0.91-4.53v-96.25c0.01-1.55 0.32-3.09 0.91-4.53 0.6-1.43 1.48-2.74 2.57-3.84 1.1-1.1 2.41-1.97 3.84-2.57 1.44-0.59 2.98-0.9 4.53-0.91l392.48-0.08c1.56 0 3.1-0.31 4.53-0.91 1.44-0.6 2.74-1.47 3.84-2.57 1.1-1.1 1.97-2.4 2.57-3.84 0.6-1.43 0.91-2.97 0.91-4.53v-38.44c0-1.55-0.31-3.09-0.91-4.53-0.6-1.43-1.47-2.74-2.57-3.84-1.1-1.1-2.4-1.97-3.84-2.57-1.43-0.59-2.97-0.9-4.53-0.91l-481.4 0.09c-1.55 0-3.09 0.31-4.53 0.91-1.43 0.6-2.74 1.47-3.84 2.57-1.09 1.1-1.97 2.4-2.56 3.84-0.6 1.43-0.91 2.97-0.92 4.52z"/>
</svg>